<mxfile host="app.diagrams.net" agent="Mozilla/5.0 (Macintosh; Intel Mac OS X 10_15_7) AppleWebKit/537.36 (KHTML, like Gecko) Chrome/131.0.0.0 Safari/537.36" version="24.9.0" pages="2">
  <diagram name="comparison" id="0M0nQe4vPvwhYYGZiS-Q">
    <mxGraphModel dx="1242" dy="785" grid="1" gridSize="10" guides="1" tooltips="1" connect="1" arrows="1" fold="1" page="1" pageScale="1" pageWidth="850" pageHeight="1100" math="0" shadow="0">
      <root>
        <mxCell id="0" />
        <mxCell id="1" parent="0" />
        <mxCell id="TExIWr_ZSbE-Itn35Uh6-1" value="&lt;font face=&quot;Source Code Pro&quot; style=&quot;font-size: 16px;&quot;&gt;&lt;b style=&quot;&quot;&gt;100000&lt;/b&gt;&lt;/font&gt;" style="rounded=0;whiteSpace=wrap;html=1;fillColor=#CCFF99;" vertex="1" parent="1">
          <mxGeometry x="220" y="50" width="80" height="40" as="geometry" />
        </mxCell>
        <mxCell id="TExIWr_ZSbE-Itn35Uh6-2" value="&lt;font face=&quot;Source Code Pro&quot;&gt;&lt;b&gt;100001&lt;/b&gt;&lt;/font&gt;" style="rounded=0;whiteSpace=wrap;html=1;fontSize=16;fillColor=#CCFF99;" vertex="1" parent="1">
          <mxGeometry x="300" y="50" width="80" height="40" as="geometry" />
        </mxCell>
        <mxCell id="TExIWr_ZSbE-Itn35Uh6-3" value="&lt;font face=&quot;Source Code Pro&quot;&gt;&lt;b&gt;...&lt;/b&gt;&lt;/font&gt;" style="rounded=0;whiteSpace=wrap;html=1;fontSize=16;fillColor=#CCFF99;" vertex="1" parent="1">
          <mxGeometry x="380" y="50" width="80" height="40" as="geometry" />
        </mxCell>
        <mxCell id="TExIWr_ZSbE-Itn35Uh6-4" value="&lt;font face=&quot;Source Code Pro&quot;&gt;&lt;b&gt;111110&lt;/b&gt;&lt;/font&gt;" style="rounded=0;whiteSpace=wrap;html=1;fontSize=16;fillColor=#CCFF99;" vertex="1" parent="1">
          <mxGeometry x="460" y="50" width="80" height="40" as="geometry" />
        </mxCell>
        <mxCell id="TExIWr_ZSbE-Itn35Uh6-5" value="&lt;font face=&quot;Source Code Pro&quot;&gt;&lt;b&gt;111111&lt;/b&gt;&lt;/font&gt;" style="rounded=0;whiteSpace=wrap;html=1;fontSize=16;fillColor=#CCFF99;" vertex="1" parent="1">
          <mxGeometry x="540" y="50" width="80" height="40" as="geometry" />
        </mxCell>
        <mxCell id="TExIWr_ZSbE-Itn35Uh6-6" value="&lt;font face=&quot;Source Code Pro&quot;&gt;&lt;b&gt;000000&lt;/b&gt;&lt;/font&gt;" style="rounded=0;whiteSpace=wrap;html=1;fontSize=16;fillColor=#FF9999;" vertex="1" parent="1">
          <mxGeometry x="620" y="50" width="80" height="40" as="geometry" />
        </mxCell>
        <mxCell id="TExIWr_ZSbE-Itn35Uh6-7" value="&lt;font face=&quot;Source Code Pro&quot;&gt;&lt;b&gt;000001&lt;/b&gt;&lt;/font&gt;" style="rounded=0;whiteSpace=wrap;html=1;fontSize=16;fillColor=#FF9999;" vertex="1" parent="1">
          <mxGeometry x="700" y="50" width="80" height="40" as="geometry" />
        </mxCell>
        <mxCell id="TExIWr_ZSbE-Itn35Uh6-8" value="&lt;font face=&quot;Source Code Pro&quot;&gt;&lt;b&gt;...&lt;/b&gt;&lt;/font&gt;" style="rounded=0;whiteSpace=wrap;html=1;fontSize=16;fillColor=#FF9999;" vertex="1" parent="1">
          <mxGeometry x="780" y="50" width="80" height="40" as="geometry" />
        </mxCell>
        <mxCell id="TExIWr_ZSbE-Itn35Uh6-9" value="&lt;font face=&quot;Source Code Pro&quot;&gt;&lt;b&gt;011110&lt;/b&gt;&lt;/font&gt;" style="rounded=0;whiteSpace=wrap;html=1;fontSize=16;fillColor=#FF9999;" vertex="1" parent="1">
          <mxGeometry x="860" y="50" width="80" height="40" as="geometry" />
        </mxCell>
        <mxCell id="TExIWr_ZSbE-Itn35Uh6-10" value="&lt;font face=&quot;Source Code Pro&quot;&gt;&lt;b&gt;011111&lt;/b&gt;&lt;/font&gt;" style="rounded=0;whiteSpace=wrap;html=1;fontSize=16;fillColor=#FF9999;" vertex="1" parent="1">
          <mxGeometry x="940" y="50" width="80" height="40" as="geometry" />
        </mxCell>
        <mxCell id="TExIWr_ZSbE-Itn35Uh6-11" value="&lt;font data-font-src=&quot;https://fonts.googleapis.com/css?family=Spectral&quot; face=&quot;Spectral&quot; style=&quot;font-size: 32px;&quot;&gt;Older&lt;/font&gt;" style="text;html=1;align=center;verticalAlign=middle;whiteSpace=wrap;rounded=0;" vertex="1" parent="1">
          <mxGeometry x="220" y="10" width="80" height="30" as="geometry" />
        </mxCell>
        <mxCell id="TExIWr_ZSbE-Itn35Uh6-12" value="&lt;font data-font-src=&quot;https://fonts.googleapis.com/css?family=Spectral&quot; face=&quot;Spectral&quot; style=&quot;font-size: 32px;&quot;&gt;Younger&lt;/font&gt;" style="text;html=1;align=center;verticalAlign=middle;whiteSpace=wrap;rounded=0;" vertex="1" parent="1">
          <mxGeometry x="940" y="10" width="80" height="30" as="geometry" />
        </mxCell>
        <mxCell id="TExIWr_ZSbE-Itn35Uh6-13" value="" style="endArrow=classic;startArrow=classic;html=1;rounded=0;strokeWidth=5;" edge="1" parent="1">
          <mxGeometry width="50" height="50" relative="1" as="geometry">
            <mxPoint x="310" y="25" as="sourcePoint" />
            <mxPoint x="910" y="25" as="targetPoint" />
          </mxGeometry>
        </mxCell>
        <mxCell id="TExIWr_ZSbE-Itn35Uh6-14" value="&lt;font data-font-src=&quot;https://fonts.googleapis.com/css?family=Spectral&quot; face=&quot;Spectral&quot; style=&quot;font-size: 32px;&quot;&gt;Age Parity&lt;/font&gt;" style="text;html=1;align=center;verticalAlign=middle;whiteSpace=wrap;rounded=0;" vertex="1" parent="1">
          <mxGeometry x="10" y="10" width="170" height="30" as="geometry" />
        </mxCell>
        <mxCell id="TExIWr_ZSbE-Itn35Uh6-15" value="&lt;font face=&quot;Source Code Pro&quot; style=&quot;font-size: 32px;&quot;&gt;0&lt;/font&gt;" style="text;html=1;align=center;verticalAlign=middle;whiteSpace=wrap;rounded=0;" vertex="1" parent="1">
          <mxGeometry x="75" y="50" width="40" height="40" as="geometry" />
        </mxCell>
        <mxCell id="TExIWr_ZSbE-Itn35Uh6-16" value="&lt;font face=&quot;Source Code Pro&quot; style=&quot;font-size: 32px;&quot;&gt;1&lt;/font&gt;" style="text;html=1;align=center;verticalAlign=middle;whiteSpace=wrap;rounded=0;" vertex="1" parent="1">
          <mxGeometry x="75" y="110" width="40" height="40" as="geometry" />
        </mxCell>
        <mxCell id="TExIWr_ZSbE-Itn35Uh6-17" value="&lt;font face=&quot;Source Code Pro&quot;&gt;&lt;b&gt;000000&lt;/b&gt;&lt;/font&gt;" style="rounded=0;whiteSpace=wrap;html=1;fontSize=16;fillColor=#FF9999;" vertex="1" parent="1">
          <mxGeometry x="220" y="110" width="80" height="40" as="geometry" />
        </mxCell>
        <mxCell id="TExIWr_ZSbE-Itn35Uh6-18" value="&lt;font face=&quot;Source Code Pro&quot;&gt;&lt;b&gt;000001&lt;/b&gt;&lt;/font&gt;" style="rounded=0;whiteSpace=wrap;html=1;fontSize=16;fillColor=#FF9999;" vertex="1" parent="1">
          <mxGeometry x="300" y="110" width="80" height="40" as="geometry" />
        </mxCell>
        <mxCell id="TExIWr_ZSbE-Itn35Uh6-19" value="&lt;font face=&quot;Source Code Pro&quot;&gt;&lt;b&gt;...&lt;/b&gt;&lt;/font&gt;" style="rounded=0;whiteSpace=wrap;html=1;fontSize=16;fillColor=#FF9999;" vertex="1" parent="1">
          <mxGeometry x="380" y="110" width="80" height="40" as="geometry" />
        </mxCell>
        <mxCell id="TExIWr_ZSbE-Itn35Uh6-20" value="&lt;font face=&quot;Source Code Pro&quot;&gt;&lt;b&gt;011110&lt;/b&gt;&lt;/font&gt;" style="rounded=0;whiteSpace=wrap;html=1;fontSize=16;fillColor=#FF9999;" vertex="1" parent="1">
          <mxGeometry x="460" y="110" width="80" height="40" as="geometry" />
        </mxCell>
        <mxCell id="TExIWr_ZSbE-Itn35Uh6-21" value="&lt;font face=&quot;Source Code Pro&quot;&gt;&lt;b&gt;011111&lt;/b&gt;&lt;/font&gt;" style="rounded=0;whiteSpace=wrap;html=1;fontSize=16;fillColor=#FF9999;" vertex="1" parent="1">
          <mxGeometry x="540" y="110" width="80" height="40" as="geometry" />
        </mxCell>
        <mxCell id="TExIWr_ZSbE-Itn35Uh6-22" value="&lt;font face=&quot;Source Code Pro&quot; style=&quot;font-size: 16px;&quot;&gt;&lt;b style=&quot;&quot;&gt;100000&lt;/b&gt;&lt;/font&gt;" style="rounded=0;whiteSpace=wrap;html=1;fillColor=#CCFF99;" vertex="1" parent="1">
          <mxGeometry x="620" y="110" width="80" height="40" as="geometry" />
        </mxCell>
        <mxCell id="TExIWr_ZSbE-Itn35Uh6-23" value="&lt;font face=&quot;Source Code Pro&quot;&gt;&lt;b&gt;100001&lt;/b&gt;&lt;/font&gt;" style="rounded=0;whiteSpace=wrap;html=1;fontSize=16;fillColor=#CCFF99;" vertex="1" parent="1">
          <mxGeometry x="700" y="110" width="80" height="40" as="geometry" />
        </mxCell>
        <mxCell id="TExIWr_ZSbE-Itn35Uh6-24" value="&lt;font face=&quot;Source Code Pro&quot;&gt;&lt;b&gt;...&lt;/b&gt;&lt;/font&gt;" style="rounded=0;whiteSpace=wrap;html=1;fontSize=16;fillColor=#CCFF99;" vertex="1" parent="1">
          <mxGeometry x="780" y="110" width="80" height="40" as="geometry" />
        </mxCell>
        <mxCell id="TExIWr_ZSbE-Itn35Uh6-25" value="&lt;font face=&quot;Source Code Pro&quot;&gt;&lt;b&gt;111110&lt;/b&gt;&lt;/font&gt;" style="rounded=0;whiteSpace=wrap;html=1;fontSize=16;fillColor=#CCFF99;" vertex="1" parent="1">
          <mxGeometry x="860" y="110" width="80" height="40" as="geometry" />
        </mxCell>
        <mxCell id="TExIWr_ZSbE-Itn35Uh6-26" value="&lt;font face=&quot;Source Code Pro&quot;&gt;&lt;b&gt;111111&lt;/b&gt;&lt;/font&gt;" style="rounded=0;whiteSpace=wrap;html=1;fontSize=16;fillColor=#CCFF99;" vertex="1" parent="1">
          <mxGeometry x="940" y="110" width="80" height="40" as="geometry" />
        </mxCell>
      </root>
    </mxGraphModel>
  </diagram>
  <diagram id="j8wYUCVkxpJF3SLPZUCT" name="transition">
    <mxGraphModel dx="1242" dy="785" grid="1" gridSize="10" guides="1" tooltips="1" connect="1" arrows="1" fold="1" page="1" pageScale="1" pageWidth="850" pageHeight="1100" math="0" shadow="0">
      <root>
        <mxCell id="0" />
        <mxCell id="1" parent="0" />
        <mxCell id="yOnYXmLydsECGC7rRDOM-1" value="&lt;font data-font-src=&quot;https://fonts.googleapis.com/css?family=Spectral&quot; face=&quot;Spectral&quot; style=&quot;font-size: 32px;&quot;&gt;Age Parity&lt;/font&gt;" style="text;html=1;align=center;verticalAlign=middle;whiteSpace=wrap;rounded=0;" vertex="1" parent="1">
          <mxGeometry x="40" y="160" width="170" height="30" as="geometry" />
        </mxCell>
        <mxCell id="p1rVr1j-u2DOIWnISoBu-1" value="&lt;font face=&quot;Source Code Pro&quot; style=&quot;font-size: 16px;&quot;&gt;&lt;b style=&quot;&quot;&gt;100000&lt;/b&gt;&lt;/font&gt;" style="rounded=0;whiteSpace=wrap;html=1;fillColor=#CCFF99;" vertex="1" parent="1">
          <mxGeometry x="240" y="200" width="80" height="40" as="geometry" />
        </mxCell>
        <mxCell id="p1rVr1j-u2DOIWnISoBu-2" value="&lt;font face=&quot;Source Code Pro&quot;&gt;&lt;b&gt;100001&lt;/b&gt;&lt;/font&gt;" style="rounded=0;whiteSpace=wrap;html=1;fontSize=16;fillColor=#CCFF99;" vertex="1" parent="1">
          <mxGeometry x="320" y="200" width="80" height="40" as="geometry" />
        </mxCell>
        <mxCell id="p1rVr1j-u2DOIWnISoBu-3" value="&lt;font face=&quot;Source Code Pro&quot;&gt;&lt;b&gt;...&lt;/b&gt;&lt;/font&gt;" style="rounded=0;whiteSpace=wrap;html=1;fontSize=16;fillColor=#CCFF99;" vertex="1" parent="1">
          <mxGeometry x="400" y="200" width="80" height="40" as="geometry" />
        </mxCell>
        <mxCell id="p1rVr1j-u2DOIWnISoBu-4" value="&lt;font face=&quot;Source Code Pro&quot;&gt;&lt;b&gt;111110&lt;/b&gt;&lt;/font&gt;" style="rounded=0;whiteSpace=wrap;html=1;fontSize=16;fillColor=#CCFF99;" vertex="1" parent="1">
          <mxGeometry x="480" y="200" width="80" height="40" as="geometry" />
        </mxCell>
        <mxCell id="p1rVr1j-u2DOIWnISoBu-5" value="&lt;font face=&quot;Source Code Pro&quot;&gt;&lt;b&gt;111111&lt;/b&gt;&lt;/font&gt;" style="rounded=0;whiteSpace=wrap;html=1;fontSize=16;fillColor=#CCFF99;" vertex="1" parent="1">
          <mxGeometry x="560" y="200" width="80" height="40" as="geometry" />
        </mxCell>
        <mxCell id="p1rVr1j-u2DOIWnISoBu-6" value="&lt;font face=&quot;Source Code Pro&quot;&gt;&lt;b&gt;000000&lt;/b&gt;&lt;/font&gt;" style="rounded=0;whiteSpace=wrap;html=1;fontSize=16;fillColor=#FF9999;" vertex="1" parent="1">
          <mxGeometry x="640" y="200" width="80" height="40" as="geometry" />
        </mxCell>
        <mxCell id="p1rVr1j-u2DOIWnISoBu-7" value="&lt;font face=&quot;Source Code Pro&quot;&gt;&lt;b&gt;000001&lt;/b&gt;&lt;/font&gt;" style="rounded=0;whiteSpace=wrap;html=1;fontSize=16;fillColor=#FF9999;" vertex="1" parent="1">
          <mxGeometry x="720" y="200" width="80" height="40" as="geometry" />
        </mxCell>
        <mxCell id="p1rVr1j-u2DOIWnISoBu-8" value="&lt;font face=&quot;Source Code Pro&quot;&gt;&lt;b&gt;...&lt;/b&gt;&lt;/font&gt;" style="rounded=0;whiteSpace=wrap;html=1;fontSize=16;fillColor=#FF9999;" vertex="1" parent="1">
          <mxGeometry x="800" y="200" width="80" height="40" as="geometry" />
        </mxCell>
        <mxCell id="p1rVr1j-u2DOIWnISoBu-9" value="&lt;font face=&quot;Source Code Pro&quot;&gt;&lt;b&gt;011110&lt;/b&gt;&lt;/font&gt;" style="rounded=0;whiteSpace=wrap;html=1;fontSize=16;fillColor=#FF9999;" vertex="1" parent="1">
          <mxGeometry x="880" y="200" width="80" height="40" as="geometry" />
        </mxCell>
        <mxCell id="p1rVr1j-u2DOIWnISoBu-10" value="&lt;font face=&quot;Source Code Pro&quot;&gt;&lt;b&gt;011111&lt;/b&gt;&lt;/font&gt;" style="rounded=0;whiteSpace=wrap;html=1;fontSize=16;fillColor=#FF9999;" vertex="1" parent="1">
          <mxGeometry x="960" y="200" width="80" height="40" as="geometry" />
        </mxCell>
        <mxCell id="p1rVr1j-u2DOIWnISoBu-11" value="" style="endArrow=classic;html=1;rounded=0;strokeWidth=4;" edge="1" parent="1">
          <mxGeometry width="50" height="50" relative="1" as="geometry">
            <mxPoint x="599.94" y="150" as="sourcePoint" />
            <mxPoint x="599.94" y="190" as="targetPoint" />
          </mxGeometry>
        </mxCell>
        <mxCell id="p1rVr1j-u2DOIWnISoBu-12" value="&lt;font data-font-src=&quot;https://fonts.googleapis.com/css?family=Spectral&quot; face=&quot;Spectral&quot; style=&quot;font-size: 24px;&quot;&gt;Last Committed&lt;/font&gt;" style="text;html=1;align=center;verticalAlign=middle;whiteSpace=wrap;rounded=0;strokeColor=default;fillColor=default;" vertex="1" parent="1">
          <mxGeometry x="507.5" y="110" width="185" height="40" as="geometry" />
        </mxCell>
        <mxCell id="p1rVr1j-u2DOIWnISoBu-15" value="" style="endArrow=classic;html=1;rounded=0;strokeWidth=4;" edge="1" parent="1">
          <mxGeometry width="50" height="50" relative="1" as="geometry">
            <mxPoint x="999.94" y="150" as="sourcePoint" />
            <mxPoint x="999.94" y="190" as="targetPoint" />
          </mxGeometry>
        </mxCell>
        <mxCell id="p1rVr1j-u2DOIWnISoBu-16" value="&lt;font data-font-src=&quot;https://fonts.googleapis.com/css?family=Spectral&quot; face=&quot;Spectral&quot; style=&quot;font-size: 24px;&quot;&gt;Next To Issue&lt;/font&gt;" style="text;html=1;align=center;verticalAlign=middle;whiteSpace=wrap;rounded=0;strokeColor=default;fillColor=default;" vertex="1" parent="1">
          <mxGeometry x="907.5" y="110" width="185" height="40" as="geometry" />
        </mxCell>
        <mxCell id="-m3cgNoUSR38deEld0bs-1" value="&lt;font face=&quot;Source Code Pro&quot; style=&quot;font-size: 32px;&quot;&gt;0&lt;/font&gt;" style="text;html=1;align=center;verticalAlign=middle;whiteSpace=wrap;rounded=0;" vertex="1" parent="1">
          <mxGeometry x="100" y="200" width="40" height="40" as="geometry" />
        </mxCell>
        <mxCell id="-m3cgNoUSR38deEld0bs-2" value="&lt;font face=&quot;Source Code Pro&quot; style=&quot;font-size: 16px;&quot;&gt;&lt;b style=&quot;&quot;&gt;100000&lt;/b&gt;&lt;/font&gt;" style="rounded=0;whiteSpace=wrap;html=1;fillColor=#CCFF99;" vertex="1" parent="1">
          <mxGeometry x="240" y="310" width="80" height="40" as="geometry" />
        </mxCell>
        <mxCell id="-m3cgNoUSR38deEld0bs-3" value="&lt;font face=&quot;Source Code Pro&quot;&gt;&lt;b&gt;100001&lt;/b&gt;&lt;/font&gt;" style="rounded=0;whiteSpace=wrap;html=1;fontSize=16;fillColor=#CCFF99;" vertex="1" parent="1">
          <mxGeometry x="320" y="310" width="80" height="40" as="geometry" />
        </mxCell>
        <mxCell id="-m3cgNoUSR38deEld0bs-4" value="&lt;font face=&quot;Source Code Pro&quot;&gt;&lt;b&gt;...&lt;/b&gt;&lt;/font&gt;" style="rounded=0;whiteSpace=wrap;html=1;fontSize=16;fillColor=#CCFF99;" vertex="1" parent="1">
          <mxGeometry x="400" y="310" width="80" height="40" as="geometry" />
        </mxCell>
        <mxCell id="-m3cgNoUSR38deEld0bs-5" value="&lt;font face=&quot;Source Code Pro&quot;&gt;&lt;b&gt;111110&lt;/b&gt;&lt;/font&gt;" style="rounded=0;whiteSpace=wrap;html=1;fontSize=16;fillColor=#CCFF99;" vertex="1" parent="1">
          <mxGeometry x="480" y="310" width="80" height="40" as="geometry" />
        </mxCell>
        <mxCell id="-m3cgNoUSR38deEld0bs-6" value="&lt;font face=&quot;Source Code Pro&quot;&gt;&lt;b&gt;111111&lt;/b&gt;&lt;/font&gt;" style="rounded=0;whiteSpace=wrap;html=1;fontSize=16;fillColor=#CCFF99;" vertex="1" parent="1">
          <mxGeometry x="560" y="310" width="80" height="40" as="geometry" />
        </mxCell>
        <mxCell id="-m3cgNoUSR38deEld0bs-7" value="&lt;font face=&quot;Source Code Pro&quot;&gt;&lt;b&gt;000000&lt;/b&gt;&lt;/font&gt;" style="rounded=0;whiteSpace=wrap;html=1;fontSize=16;fillColor=#FF9999;" vertex="1" parent="1">
          <mxGeometry x="640" y="310" width="80" height="40" as="geometry" />
        </mxCell>
        <mxCell id="-m3cgNoUSR38deEld0bs-8" value="&lt;font face=&quot;Source Code Pro&quot;&gt;&lt;b&gt;000001&lt;/b&gt;&lt;/font&gt;" style="rounded=0;whiteSpace=wrap;html=1;fontSize=16;fillColor=#FF9999;" vertex="1" parent="1">
          <mxGeometry x="720" y="310" width="80" height="40" as="geometry" />
        </mxCell>
        <mxCell id="-m3cgNoUSR38deEld0bs-9" value="&lt;font face=&quot;Source Code Pro&quot;&gt;&lt;b&gt;...&lt;/b&gt;&lt;/font&gt;" style="rounded=0;whiteSpace=wrap;html=1;fontSize=16;fillColor=#FF9999;" vertex="1" parent="1">
          <mxGeometry x="800" y="310" width="80" height="40" as="geometry" />
        </mxCell>
        <mxCell id="-m3cgNoUSR38deEld0bs-10" value="&lt;font face=&quot;Source Code Pro&quot;&gt;&lt;b&gt;011110&lt;/b&gt;&lt;/font&gt;" style="rounded=0;whiteSpace=wrap;html=1;fontSize=16;fillColor=#FF9999;" vertex="1" parent="1">
          <mxGeometry x="880" y="310" width="80" height="40" as="geometry" />
        </mxCell>
        <mxCell id="-m3cgNoUSR38deEld0bs-11" value="&lt;font face=&quot;Source Code Pro&quot;&gt;&lt;b&gt;011111&lt;/b&gt;&lt;/font&gt;" style="rounded=0;whiteSpace=wrap;html=1;fontSize=16;fillColor=#FF9999;" vertex="1" parent="1">
          <mxGeometry x="960" y="310" width="80" height="40" as="geometry" />
        </mxCell>
        <mxCell id="-m3cgNoUSR38deEld0bs-12" value="" style="endArrow=classic;html=1;rounded=0;strokeWidth=4;" edge="1" parent="1">
          <mxGeometry width="50" height="50" relative="1" as="geometry">
            <mxPoint x="679.6300000000001" y="260" as="sourcePoint" />
            <mxPoint x="679.6300000000001" y="300" as="targetPoint" />
          </mxGeometry>
        </mxCell>
        <mxCell id="-m3cgNoUSR38deEld0bs-14" value="" style="endArrow=classic;html=1;rounded=0;strokeWidth=4;" edge="1" parent="1">
          <mxGeometry width="50" height="50" relative="1" as="geometry">
            <mxPoint x="999.94" y="260" as="sourcePoint" />
            <mxPoint x="999.94" y="300" as="targetPoint" />
          </mxGeometry>
        </mxCell>
        <mxCell id="-m3cgNoUSR38deEld0bs-16" value="&lt;font face=&quot;Source Code Pro&quot; style=&quot;font-size: 32px;&quot;&gt;0&lt;/font&gt;&lt;font face=&quot;Source Code Pro&quot;&gt;&lt;span style=&quot;font-size: 32px;&quot;&gt;→1&lt;/span&gt;&lt;/font&gt;" style="text;html=1;align=center;verticalAlign=middle;whiteSpace=wrap;rounded=0;" vertex="1" parent="1">
          <mxGeometry x="100" y="310" width="40" height="40" as="geometry" />
        </mxCell>
        <mxCell id="-m3cgNoUSR38deEld0bs-17" value="&lt;font face=&quot;Source Code Pro&quot;&gt;&lt;span style=&quot;font-size: 32px;&quot;&gt;1&lt;/span&gt;&lt;/font&gt;" style="text;html=1;align=center;verticalAlign=middle;whiteSpace=wrap;rounded=0;" vertex="1" parent="1">
          <mxGeometry x="100" y="420" width="40" height="40" as="geometry" />
        </mxCell>
        <mxCell id="-m3cgNoUSR38deEld0bs-18" value="&lt;font face=&quot;Source Code Pro&quot; style=&quot;font-size: 16px;&quot;&gt;&lt;b style=&quot;&quot;&gt;100000&lt;/b&gt;&lt;/font&gt;" style="rounded=0;whiteSpace=wrap;html=1;fillColor=#CCFF99;" vertex="1" parent="1">
          <mxGeometry x="1040" y="420" width="80" height="40" as="geometry" />
        </mxCell>
        <mxCell id="-m3cgNoUSR38deEld0bs-19" value="&lt;font face=&quot;Source Code Pro&quot;&gt;&lt;b&gt;100001&lt;/b&gt;&lt;/font&gt;" style="rounded=0;whiteSpace=wrap;html=1;fontSize=16;fillColor=#CCFF99;" vertex="1" parent="1">
          <mxGeometry x="1120" y="420" width="80" height="40" as="geometry" />
        </mxCell>
        <mxCell id="-m3cgNoUSR38deEld0bs-20" value="&lt;font face=&quot;Source Code Pro&quot;&gt;&lt;b&gt;...&lt;/b&gt;&lt;/font&gt;" style="rounded=0;whiteSpace=wrap;html=1;fontSize=16;fillColor=#CCFF99;" vertex="1" parent="1">
          <mxGeometry x="1200" y="420" width="80" height="40" as="geometry" />
        </mxCell>
        <mxCell id="-m3cgNoUSR38deEld0bs-21" value="&lt;font face=&quot;Source Code Pro&quot;&gt;&lt;b&gt;111110&lt;/b&gt;&lt;/font&gt;" style="rounded=0;whiteSpace=wrap;html=1;fontSize=16;fillColor=#CCFF99;" vertex="1" parent="1">
          <mxGeometry x="1280" y="420" width="80" height="40" as="geometry" />
        </mxCell>
        <mxCell id="-m3cgNoUSR38deEld0bs-22" value="&lt;font face=&quot;Source Code Pro&quot;&gt;&lt;b&gt;111111&lt;/b&gt;&lt;/font&gt;" style="rounded=0;whiteSpace=wrap;html=1;fontSize=16;fillColor=#CCFF99;" vertex="1" parent="1">
          <mxGeometry x="1360" y="420" width="80" height="40" as="geometry" />
        </mxCell>
        <mxCell id="-m3cgNoUSR38deEld0bs-23" value="&lt;font face=&quot;Source Code Pro&quot;&gt;&lt;b&gt;000000&lt;/b&gt;&lt;/font&gt;" style="rounded=0;whiteSpace=wrap;html=1;fontSize=16;fillColor=#FF9999;" vertex="1" parent="1">
          <mxGeometry x="640" y="420" width="80" height="40" as="geometry" />
        </mxCell>
        <mxCell id="-m3cgNoUSR38deEld0bs-24" value="&lt;font face=&quot;Source Code Pro&quot;&gt;&lt;b&gt;000001&lt;/b&gt;&lt;/font&gt;" style="rounded=0;whiteSpace=wrap;html=1;fontSize=16;fillColor=#FF9999;" vertex="1" parent="1">
          <mxGeometry x="720" y="420" width="80" height="40" as="geometry" />
        </mxCell>
        <mxCell id="-m3cgNoUSR38deEld0bs-25" value="&lt;font face=&quot;Source Code Pro&quot;&gt;&lt;b&gt;...&lt;/b&gt;&lt;/font&gt;" style="rounded=0;whiteSpace=wrap;html=1;fontSize=16;fillColor=#FF9999;" vertex="1" parent="1">
          <mxGeometry x="800" y="420" width="80" height="40" as="geometry" />
        </mxCell>
        <mxCell id="-m3cgNoUSR38deEld0bs-26" value="&lt;font face=&quot;Source Code Pro&quot;&gt;&lt;b&gt;011110&lt;/b&gt;&lt;/font&gt;" style="rounded=0;whiteSpace=wrap;html=1;fontSize=16;fillColor=#FF9999;" vertex="1" parent="1">
          <mxGeometry x="880" y="420" width="80" height="40" as="geometry" />
        </mxCell>
        <mxCell id="-m3cgNoUSR38deEld0bs-27" value="&lt;font face=&quot;Source Code Pro&quot;&gt;&lt;b&gt;011111&lt;/b&gt;&lt;/font&gt;" style="rounded=0;whiteSpace=wrap;html=1;fontSize=16;fillColor=#FF9999;" vertex="1" parent="1">
          <mxGeometry x="960" y="420" width="80" height="40" as="geometry" />
        </mxCell>
        <mxCell id="-m3cgNoUSR38deEld0bs-28" value="" style="endArrow=classic;html=1;rounded=0;strokeWidth=4;" edge="1" parent="1">
          <mxGeometry width="50" height="50" relative="1" as="geometry">
            <mxPoint x="679.6300000000001" y="370" as="sourcePoint" />
            <mxPoint x="679.6300000000001" y="410" as="targetPoint" />
          </mxGeometry>
        </mxCell>
        <mxCell id="-m3cgNoUSR38deEld0bs-29" value="" style="endArrow=classic;html=1;rounded=0;strokeWidth=4;" edge="1" parent="1">
          <mxGeometry width="50" height="50" relative="1" as="geometry">
            <mxPoint x="1079.5" y="370" as="sourcePoint" />
            <mxPoint x="1079.5" y="410" as="targetPoint" />
          </mxGeometry>
        </mxCell>
      </root>
    </mxGraphModel>
  </diagram>
</mxfile>
